<svg width="32" height="32" viewBox="0 0 32 32" fill="none" xmlns="http://www.w3.org/2000/svg">
<path fill-rule="evenodd" clip-rule="evenodd" d="M23.22 19.176C22.8227 18.9773 20.8747 18.02 20.512 17.8867C20.1493 17.7547 19.8853 17.6893 19.62 18.0867C19.356 18.4813 18.5973 19.3747 18.3667 19.6387C18.1347 19.904 17.904 19.936 17.508 19.7387C17.112 19.5387 15.8347 19.1213 14.3213 17.772C13.144 16.7213 12.348 15.424 12.1173 15.0267C11.8867 14.6307 12.092 14.416 12.2907 14.2187C12.4693 14.0413 12.6867 13.756 12.8853 13.5253C13.084 13.2933 13.1493 13.128 13.2813 12.8627C13.4147 12.5987 13.348 12.368 13.248 12.1693C13.1493 11.9707 12.3573 10.02 12.0267 9.22666C11.7053 8.45466 11.3787 8.55999 11.136 8.54666C10.904 8.53599 10.64 8.53333 10.376 8.53333C10.112 8.53333 9.68267 8.63199 9.32 9.02933C8.956 9.42533 7.93333 10.384 7.93333 12.3347C7.93333 14.284 9.352 16.168 9.55067 16.4333C9.74933 16.6973 12.344 20.7 16.3187 22.416C17.2653 22.824 18.0027 23.068 18.5773 23.2493C19.5267 23.552 20.3907 23.5093 21.0733 23.4067C21.8333 23.2933 23.4173 22.448 23.748 21.5227C24.0773 20.5973 24.0773 19.804 23.9787 19.6387C23.88 19.4733 23.616 19.3747 23.2187 19.176H23.22ZM15.9907 29.0467H15.9853C13.6246 29.0471 11.3072 28.4125 9.276 27.2093L8.796 26.924L3.80667 28.2333L5.13867 23.3693L4.82533 22.8707C3.50552 20.7698 2.80706 18.3384 2.81067 15.8573C2.81333 8.59066 8.72533 2.67866 15.996 2.67866C19.516 2.67866 22.8253 4.05199 25.3133 6.54266C26.5405 7.76477 27.5132 9.21808 28.175 10.8185C28.8369 12.419 29.1749 14.1348 29.1693 15.8667C29.1667 23.1333 23.2547 29.0467 15.9907 29.0467V29.0467ZM27.2067 4.65066C25.7376 3.17189 23.9896 1.99938 22.0641 1.20106C20.1386 0.402745 18.0738 -0.00549603 15.9893 -6.39842e-06C7.25067 -6.39842e-06 0.136 7.11333 0.133333 15.856C0.129284 18.6383 0.859166 21.3725 2.24933 23.7827L0 32L8.40533 29.7947C10.7305 31.0615 13.3361 31.7253 15.984 31.7253H15.9907C24.7293 31.7253 31.844 24.612 31.8467 15.868C31.8531 13.7844 31.4463 11.7201 30.6499 9.7947C29.8535 7.86928 28.6831 6.12089 27.2067 4.65066" fill="#633100"/>
</svg>
